<?xml version="1.0" standalone="no"?>
<!DOCTYPE svg PUBLIC "-//W3C//DTD SVG 20010904//EN" "http://www.w3.org/TR/2001/REC-SVG-20010904/DTD/svg10.dtd">
<svg version="1.0" xmlns="http://www.w3.org/2000/svg" width="400.000000pt" height="133.000000pt"
  viewBox="0 0 400.000000 133.000000" preserveAspectRatio="xMidYMid meet">

  <g transform="translate(0.000000,133.000000) scale(0.100000,-0.100000)" fill="#5d67e8" stroke="none">
    <path d="M213 934 c-22 -10 -16 -87 10 -124 20 -30 30 -35 92 -46 93 -15 158
-49 225 -118 30 -31 59 -56 64 -56 4 0 33 23 63 50 90 82 142 106 296 135 52
10 89 132 48 155 -83 44 -254 -37 -351 -166 -24 -32 -47 -62 -50 -67 -4 -4
-20 14 -38 41 -40 62 -127 144 -182 172 -43 22 -150 36 -177 24z" />
    <path d="M2005 920 c-23 -25 -25 -84 -4 -105 8 -8 29 -17 46 -21 65 -13 111
78 63 126 -27 27 -81 26 -105 0z" />
    <path d="M3110 871 c-74 -39 -82 -54 -48 -86 36 -33 42 -73 35 -229 -6 -150 3
-193 45 -214 34 -16 70 -7 102 24 38 39 42 73 12 101 -24 22 -26 30 -26 113
l0 90 28 0 c36 0 55 13 50 36 -2 14 -13 20 -41 22 l-37 3 0 59 c0 72 -15 110
-44 110 -12 0 -46 -13 -76 -29z" />
    <path d="M3571 818 c-62 -51 -66 -79 -11 -89 19 -3 45 -10 56 -17 29 -15 54
-71 54 -119 0 -46 -18 -113 -30 -113 -4 0 -27 30 -51 68 -128 204 -126 202
-205 141 -30 -23 -57 -46 -60 -51 -8 -13 15 -38 35 -38 28 0 113 -104 189
-231 l22 -36 -21 -39 c-24 -46 -19 -87 13 -121 12 -13 30 -23 41 -23 45 0 107
61 107 107 0 10 -9 24 -20 31 -31 19 -25 75 16 167 55 125 65 156 65 211 1 88
-37 146 -113 178 l-36 15 -51 -41z" />
    <path d="M1246 709 c-33 -72 -29 -89 18 -89 19 0 42 -3 51 -6 61 -24 58 -199
-4 -219 -28 -9 -78 20 -101 57 -33 55 -41 116 -24 188 8 34 12 65 10 67 -10
11 -69 -10 -98 -35 -38 -33 -58 -78 -58 -136 0 -105 61 -171 179 -197 174 -37
306 104 257 274 -20 68 -57 114 -111 138 -72 33 -89 27 -119 -42z" />
    <path d="M1604 722 c-12 -9 -36 -25 -53 -34 -38 -21 -39 -41 -6 -80 22 -26 25
-39 25 -113 0 -97 9 -127 44 -151 32 -21 69 -12 102 23 38 41 40 68 10 104
-24 28 -26 37 -26 130 0 55 -5 109 -10 120 -13 24 -57 25 -86 1z" />
    <path d="M1812 720 c-37 -23 -72 -75 -72 -108 0 -21 2 -22 73 -16 39 3 77 7
84 9 16 5 27 66 18 104 -6 27 -11 31 -38 31 -18 0 -47 -9 -65 -20z" />
    <path d="M1993 704 c-35 -20 -63 -41 -63 -48 0 -7 11 -23 24 -35 21 -20 24
-32 28 -125 4 -117 18 -150 69 -161 39 -9 76 15 101 66 18 33 17 34 -7 57 -24
21 -25 29 -25 127 0 168 -15 183 -127 119z" />
    <path d="M2287 726 c-44 -16 -87 -53 -87 -74 0 -23 40 -72 58 -72 9 0 33 21
52 48 42 56 79 67 104 30 12 -17 16 -47 16 -123 0 -55 5 -117 11 -138 20 -73
93 -86 144 -25 30 36 32 59 5 83 -17 15 -20 31 -20 97 0 90 -16 139 -55 164
-36 24 -175 30 -228 10z" />
    <path d="M2714 722 c-12 -9 -36 -25 -53 -34 -38 -21 -39 -41 -6 -80 22 -26 25
-39 25 -113 0 -97 9 -127 44 -151 32 -21 69 -12 102 23 38 41 40 68 10 104
-24 28 -26 37 -26 130 0 55 -5 109 -10 120 -13 24 -57 25 -86 1z" />
    <path d="M2922 720 c-37 -23 -72 -75 -72 -108 0 -21 2 -22 73 -16 39 3 77 7
84 9 16 5 27 66 18 104 -6 27 -11 31 -38 31 -18 0 -47 -9 -65 -20z" />
    <path d="M297 703 c-13 -12 -7 -306 6 -333 37 -73 136 -34 157 63 6 27 2 38
-27 70 -31 35 -33 41 -33 112 0 72 -1 76 -26 85 -29 11 -68 13 -77 3z" />
    <path d="M855 698 c-16 -6 -40 -20 -52 -31 -21 -19 -23 -29 -23 -134 0 -129
14 -177 55 -193 38 -15 71 -3 105 38 44 53 49 94 16 133 -24 28 -26 39 -26
115 0 81 -1 84 -22 83 -13 0 -36 -5 -53 -11z" />
    <path d="M2315 546 c-61 -19 -84 -34 -105 -69 -24 -39 -25 -70 -4 -102 23 -35
73 -49 124 -35 51 14 89 48 69 61 -8 5 -24 9 -35 9 -55 0 -57 62 -4 98 61 41
35 64 -45 38z" />
  </g>
</svg>